<?xml version="1.0" ?><svg enable-background="new 0 0 512 512" id="Layer_1" version="1.1" viewBox="0 0 512 512" xml:space="preserve" xmlns="http://www.w3.org/2000/svg" xmlns:xlink="http://www.w3.org/1999/xlink"><g><g><linearGradient gradientUnits="userSpaceOnUse" id="SVGID_1_" x1="-0.0000027" x2="512" y1="256" y2="256"><stop offset="0" style="stop-color:#E24263"/><stop offset="1" style="stop-color:#DD1E47"/></linearGradient><circle cx="256" cy="256" fill="url(#SVGID_1_)" r="256"/><linearGradient gradientUnits="userSpaceOnUse" id="SVGID_2_" x1="42.6666641" x2="469.3333435" y1="256.0005188" y2="256.0005188"><stop offset="0" style="stop-color:#DD1E47"/><stop offset="1" style="stop-color:#E24263"/></linearGradient><path d="M256,469.3338623c-117.6309967,0-213.3333435-95.7018738-213.3333435-213.3333435    S138.3690033,42.6671982,256,42.6671982c117.6362,0,213.3333435,95.7018661,213.3333435,213.333313    S373.6362,469.3338623,256,469.3338623z" fill="url(#SVGID_2_)"/></g><path d="M349.8720093,257.8800049c1.8240051-5.6640015,2.7359924-11.5200043,2.7359924-17.5200043   c0-32.0160065-26.0639954-58.0800018-58.1279907-58.0800018c-24.2400208,0-45.8880157,15.3600006-54.2880096,37.5839996   c-7.776001-6.4319916-17.5680084-9.9839935-27.8399963-9.9839935c-24.0960083,0-43.6800079,19.5839996-43.6800079,43.6799927   c0,2.4960022,0.2400055,4.9920044,0.6719971,7.4880066C154.0319977,268.3919983,144,284.0400085,144,301.1759949   c0,24.5760193,19.9680023,44.5440063,44.4960022,44.5440063h151.0079956C364.0320129,345.7200012,384,325.7520142,384,301.1759949   C384,280.2479858,369.6960144,262.5840149,349.8720093,257.8800049z M292.7641907,308.3594666l-6.7877197,6.7877197   l-21.9701233-21.9711914l-21.9701385,21.9711914l-6.787735-6.7877197l21.9706726-21.9711914l-21.9706726-21.9717407   l6.787735-6.7877197l21.9701385,21.9711914l21.9701233-21.9711914l6.7877197,6.7877197l-21.9706421,21.9717407   L292.7641907,308.3594666z" opacity="0.3"/><path d="M341.8720093,249.8800049c1.8240051-5.6640015,2.7359924-11.5200043,2.7359924-17.5200043   c0-32.0160065-26.0639954-58.0800018-58.1279907-58.0800018c-24.2400208,0-45.8880157,15.3600006-54.2880096,37.5839996   c-7.776001-6.4319916-17.5680084-9.9839935-27.8399963-9.9839935c-24.0960083,0-43.6800079,19.5839996-43.6800079,43.6799927   c0,2.4960022,0.2400055,4.9920044,0.6719971,7.4880066C146.0319977,260.3919983,136,276.0400085,136,293.1759949   c0,24.5760193,19.9680023,44.5440063,44.4960022,44.5440063h151.0079956C356.0320129,337.7200012,376,317.7520142,376,293.1759949   C376,272.2479858,361.6960144,254.5839996,341.8720093,249.8800049z M284.7641907,300.3594666l-6.7877197,6.7877197   l-21.9701233-21.9711914l-21.9701385,21.9711914l-6.787735-6.7877197l21.9706726-21.9711914l-21.9706726-21.9717407   l6.787735-6.787735l21.9701385,21.9712067l21.9701233-21.9712067l6.7877197,6.787735l-21.9706421,21.9717407   L284.7641907,300.3594666z" fill="#FFFFFF"/></g></svg>